<svg id="SvgjsSvg1029" width="288" height="288" xmlns="http://www.w3.org/2000/svg" version="1.1" xmlns:xlink="http://www.w3.org/1999/xlink" xmlns:svgjs="http://svgjs.com/svgjs"><circle id="SvgjsCircle1037" r="144" cx="144" cy="144" transform="matrix(1,0,0,1,0,0)" fill="#a851ff"></circle><defs id="SvgjsDefs1030"></defs><g id="SvgjsG1031" transform="matrix(0.84,0,0,0.84,23.743820190429688,23.03944763183594)"><svg xmlns="http://www.w3.org/2000/svg" viewBox="0 0 32 32" width="288" height="288"><g data-name="Anchor Fm" fill="#ffffff" class="color000 svgShape"><path fill="#ffffff" d="M19.2 19A5.94 5.94 0 0 0 20 16v0a6.69 6.69 0 0 0-.2-1.53A6 6 0 0 0 17 10.8a1 1 0 0 0-1 1.74A3.92 3.92 0 0 1 17.85 15a0 0 0 0 1 0 0H8.72a2 2 0 1 0 0 2h9.13a3.71 3.71 0 0 1-.39 1A3.93 3.93 0 0 1 16 19.46a1 1 0 0 0 1 1.74A6.1 6.1 0 0 0 19.2 19zM20.75 22.4a1 1 0 0 0-1.42 0 8.31 8.31 0 0 1-1.83 1.4 1 1 0 0 0 1 1.74 11 11 0 0 0 2.24-1.72A1 1 0 0 0 20.75 22.4z" class="color010101 svgShape"></path><path fill="#ffffff" d="M17.5,8.21a9.09,9.09,0,0,1,3.48,12,1,1,0,0,0,.42,1.35,1,1,0,0,0,.46.11,1,1,0,0,0,.89-.53A11.12,11.12,0,0,0,18.5,6.47a1,1,0,1,0-1,1.74Z" class="color010101 svgShape"></path><path fill="#ffffff" d="M27.43,11.87A15.9,15.9,0,0,0,20,2.14a1,1,0,1,0-1,1.74,13.83,13.83,0,0,1,6.49,8.5A13.94,13.94,0,0,1,19,28.12a1,1,0,0,0,1,1.74A16.14,16.14,0,0,0,25.86,24,15.9,15.9,0,0,0,27.43,11.87Z" class="color010101 svgShape"></path></g></svg></g></svg>